<svg width="14" height="16" viewBox="0 0 14 16" fill="none" xmlns="http://www.w3.org/2000/svg">
<path d="M2.6 1.40039H11.4C12.1333 1.40039 12.7333 2.00039 12.7333 2.73372V4.20039C12.7333 4.73372 12.4 5.40039 12.0667 5.73372L9.2 8.26706C8.8 8.60039 8.53333 9.26706 8.53333 9.80039V12.6671C8.53333 13.0671 8.26666 13.6004 7.93333 13.8004L7 14.4004C6.13333 14.9337 4.93333 14.3337 4.93333 13.2671V9.73372C4.93333 9.26706 4.66666 8.66706 4.4 8.33372L1.86666 5.66706C1.53333 5.33372 1.26666 4.73372 1.26666 4.33372V2.80039C1.26666 2.00039 1.86666 1.40039 2.6 1.40039Z" stroke="white" stroke-width="1.5" stroke-miterlimit="10" stroke-linecap="round" stroke-linejoin="round"/>
</svg>
