<svg width="14" height="16" viewBox="0 0 14 16" fill="none" xmlns="http://www.w3.org/2000/svg">
<path d="M2.60006 1.40039H11.4001C12.1334 1.40039 12.7334 2.00039 12.7334 2.73372V4.20039C12.7334 4.73372 12.4001 5.40039 12.0667 5.73372L9.20006 8.26706C8.80006 8.60039 8.53339 9.26706 8.53339 9.80039V12.6671C8.53339 13.0671 8.26672 13.6004 7.93339 13.8004L7.00006 14.4004C6.13339 14.9337 4.93339 14.3337 4.93339 13.2671V9.73372C4.93339 9.26706 4.66672 8.66706 4.40006 8.33372L1.86672 5.66706C1.53339 5.33372 1.26672 4.73372 1.26672 4.33372V2.80039C1.26672 2.00039 1.86672 1.40039 2.60006 1.40039Z" stroke="#000706" stroke-width="1.5" stroke-miterlimit="10" stroke-linecap="round" stroke-linejoin="round"/>
</svg>
