<svg width="20" height="21" viewBox="0 0 20 21" fill="none" xmlns="http://www.w3.org/2000/svg">
<g filter="url(#filter0_d_1162_241)">
<path fill-rule="evenodd" clip-rule="evenodd" d="M5.88523 14.5517C6.03552 14.6871 6.13929 14.7844 6.45994 15.089C6.77401 15.3873 6.92589 15.5282 7.06477 15.6462C7.12269 15.6949 7.17207 15.8254 7.19163 16.0193C7.20773 16.1789 7.20213 16.3569 7.18261 16.5283C7.17586 16.5877 7.16935 16.6304 7.16562 16.6508C7.12376 16.8796 7.29812 17.0909 7.5307 17.0933C7.74 17.0954 7.90126 17.098 8.32811 17.1056C8.43491 17.1075 8.43491 17.1075 8.54206 17.1094C9.70235 17.1293 10.295 17.1239 10.7203 17.0704C11.1749 17.0132 11.6431 16.4642 12.0478 15.7753C12.3908 16.3849 12.8665 16.9801 13.3468 17.0575C13.4994 17.0819 13.6841 17.0895 13.898 17.0846C14.0575 17.0809 14.2264 17.0704 14.3967 17.0551C14.5252 17.0437 14.6276 17.0321 14.6887 17.0242C14.9146 16.9949 15.0625 16.7726 15.0021 16.5529C14.9891 16.5055 14.9681 16.4184 14.947 16.3088C14.9225 16.1818 14.9048 16.0577 14.8967 15.9446C14.8916 15.8729 14.8906 15.8081 14.8939 15.752C14.8995 15.6542 14.9013 15.5994 14.904 15.4729C14.9051 15.4258 14.9051 15.4258 14.9065 15.3846C14.9117 15.2497 14.9299 15.1216 14.9885 14.8424C15.0137 14.7212 15.1358 14.4892 15.3281 14.2021C15.3854 14.1166 15.448 14.0274 15.515 13.9352C15.6423 13.7604 15.7792 13.5838 15.9161 13.4148C15.9982 13.3135 16.0616 13.2378 16.0969 13.1967C16.3932 12.7723 16.709 12.0775 16.8251 11.6713C16.9365 11.2809 17.0256 10.562 17.0804 9.85529C17.1104 9.4544 17.1215 9.13124 17.1215 8.62432C17.1215 8.5354 17.1215 8.5354 17.1217 8.46197C17.122 8.34172 17.122 8.29623 17.1216 8.24002C17.1205 8.08644 17.1161 7.93422 17.1012 7.54599C17.0693 6.73234 16.6234 6.2063 15.9664 6.10483C15.4074 6.01851 14.727 6.48279 14.727 6.48279C14.727 6.48279 14.5755 5.95998 14.4733 5.79858C14.3071 5.53924 13.8791 5.20876 13.5519 5.14437C13.2154 5.07903 12.8165 5.08626 12.4502 5.15105C12.1294 5.20845 11.8098 5.49487 11.625 5.80382C11.4928 6.02421 11.6171 5.79213 11.4849 5.56414C11.3018 5.25012 10.8755 4.96892 10.4696 4.88592C10.1257 4.81479 9.7316 4.84188 9.37167 4.94886C8.90863 5.08722 8.83491 5.43959 8.8165 5.3387C8.75491 5.00046 8.74922 5.02269 8.71084 4.78141C8.56826 3.88613 8.40871 3.26667 8.16678 2.72612C8.1807 2.7572 8.07817 2.52398 8.04086 2.44356C7.97625 2.3043 7.91175 2.17826 7.84086 2.05703C7.62236 1.68338 7.37195 1.40362 7.05777 1.24469C6.51216 0.9684 5.69435 1.10286 5.30672 1.55534C4.92176 2.00501 4.85757 2.75684 4.95452 3.68718C4.99154 4.0484 5.1213 4.70784 5.23897 5.19531C5.28057 5.3645 5.31703 5.5188 5.38388 5.80382C5.39538 5.8523 5.39538 5.8523 5.40698 5.9008C5.4587 6.11652 5.50406 6.294 5.5582 6.48876C5.55252 6.46846 5.65522 6.83285 5.67709 6.91349C5.68437 6.94041 5.68437 6.94041 5.69157 6.96745C5.7324 7.12123 5.77231 7.28704 5.83467 7.56376C5.8688 7.7159 5.9021 7.87844 5.93467 8.05075C6.02351 8.52068 6.02395 8.42282 5.93843 8.32261C5.87936 8.25338 5.8238 8.19052 5.77012 8.13257C5.67035 8.02487 5.57864 7.9358 5.49157 7.86476C4.85717 7.3457 4.46844 7.11636 3.93475 7.06598C3.05933 6.98187 2.22855 7.60024 2.10363 8.4348C2.0268 8.9465 2.05155 9.18204 2.28827 9.63423C2.41853 9.87856 2.63887 10.1737 3.04999 10.6816C3.07515 10.7127 3.07515 10.7127 3.1003 10.7437C3.60494 11.3655 3.65992 11.4346 3.77991 11.6084C4.10427 12.0791 4.89386 13.4305 5.0374 13.612L5.88523 14.5517Z" fill="black"/>
<path fill-rule="evenodd" clip-rule="evenodd" d="M3.68272 10.271C3.65783 10.2404 3.65783 10.2404 3.63301 10.2097C3.25572 9.74359 3.04883 9.46651 2.95145 9.28387C2.79863 8.99192 2.79032 8.9128 2.84539 8.54599C2.91012 8.11351 3.37721 7.76585 3.86369 7.81259C4.20029 7.84437 4.49437 8.01787 5.01708 8.44554C5.07368 8.49172 5.14191 8.55798 5.21997 8.64224C5.26613 8.69208 5.3151 8.74749 5.36797 8.80944C5.44738 8.9025 5.71499 9.22997 5.67558 9.18231C5.73372 9.25223 5.7753 9.30639 5.8228 9.37276C5.9169 9.5071 5.96985 9.58171 6.04155 9.67731C6.00793 9.63244 6.25628 9.97574 6.30887 10.0259C6.58747 10.2919 6.9909 10.0679 6.96563 9.71349C6.96141 9.65433 6.9475 9.59041 6.91845 9.47883C6.80357 8.65959 6.76339 8.39664 6.67167 7.91143C6.63759 7.73118 6.60261 7.56044 6.56646 7.39924C6.5021 7.11366 6.4601 6.93916 6.41651 6.77498C6.40876 6.74591 6.40876 6.74591 6.40098 6.71715C6.37798 6.63233 6.27373 6.26245 6.28068 6.28726C6.22933 6.10258 6.18613 5.93352 6.13636 5.72592C6.12505 5.67863 6.12505 5.67863 6.11376 5.63102C6.04726 5.34751 6.00988 5.18926 5.9677 5.01775C5.85771 4.56207 5.73344 3.93056 5.70059 3.61007C5.62513 2.88585 5.6772 2.27589 5.87642 2.04318C6.03196 1.86162 6.47283 1.78913 6.71913 1.91386C6.88021 1.99534 7.04117 2.17517 7.19348 2.43563C7.25113 2.5342 7.30521 2.6399 7.36057 2.7592C7.39409 2.83146 7.49349 3.05757 7.4823 3.03257C7.69262 3.5025 7.8371 4.06344 7.97021 4.89929C8.00961 5.14695 8.05835 5.42752 8.12085 5.77079C8.13943 5.87258 8.13943 5.87258 8.15808 5.97394C8.45947 7.60927 8.43742 7.48533 8.44175 7.61576C8.45756 8.09154 9.15986 8.10269 9.19076 7.62765C9.20055 7.47699 9.19707 7.34248 9.17968 6.95618C9.17722 6.90153 9.17722 6.90153 9.17486 6.84708C9.15964 6.49118 9.16052 6.28641 9.18156 6.17002C9.21991 5.95779 9.41043 5.72005 9.58591 5.66761C9.83233 5.59437 10.1023 5.57581 10.3186 5.62054C10.5256 5.66287 10.7673 5.82226 10.8366 5.94116C10.9201 6.08516 10.9917 6.30454 11.0466 6.57647C11.0909 6.79595 11.1214 7.0314 11.1429 7.28271C11.1496 7.3609 11.1539 7.42131 11.1606 7.52126C11.1635 7.56309 11.1635 7.56309 11.1663 7.59761C11.1679 7.61493 11.1679 7.61493 11.1718 7.64228C11.1748 7.66146 11.1748 7.66146 11.1892 7.71002C11.1964 7.84784 11.1964 7.84784 11.75 7.89895C11.9153 7.69912 11.9153 7.69912 11.9107 7.66409C11.9378 7.54574 11.9544 7.41382 11.978 7.16595C11.9931 7.00483 12.0007 6.92561 12.0096 6.84345C12.0464 6.50333 12.0931 6.28724 12.1501 6.19224C12.2208 6.07405 12.4699 5.90943 12.5816 5.88944C12.8621 5.83983 13.1702 5.83425 13.4081 5.88043C13.5158 5.90163 13.7786 6.10457 13.8408 6.20164C13.9685 6.4032 14.0928 7.05302 14.1627 7.69776C14.1517 7.74005 14.1517 7.74005 14.3235 7.98536C14.9138 7.91806 14.9138 7.91806 14.8972 7.81147C14.9128 7.77348 14.9252 7.72956 14.9427 7.66133C14.9849 7.50163 15.0129 7.40889 15.0545 7.30498C15.0834 7.23309 15.1137 7.17162 15.1449 7.1227C15.2656 6.93277 15.578 6.80373 15.8519 6.84604C16.1462 6.89148 16.3337 7.11269 16.3518 7.57501C16.3664 7.95544 16.3707 8.10169 16.3717 8.24524C16.372 8.29821 16.372 8.34073 16.3718 8.46033C16.3716 8.53425 16.3716 8.53425 16.3715 8.62431C16.3715 9.11323 16.3611 9.41784 16.3326 9.79831C16.282 10.4516 16.1965 11.1411 16.1039 11.4654C16.0095 11.796 15.7275 12.4163 15.5042 12.7389C15.4884 12.7542 15.4204 12.8353 15.3335 12.9426C15.1889 13.121 15.0443 13.3076 14.9087 13.4938C14.8361 13.5935 14.768 13.6907 14.705 13.7847C14.4613 14.1485 14.305 14.4455 14.2544 14.689C14.188 15.0054 14.1642 15.1733 14.1571 15.3552C14.1553 15.4067 14.1553 15.4067 14.1542 15.4567C14.1517 15.5747 14.1501 15.6224 14.1452 15.7087C14.1399 15.7994 14.1414 15.8959 14.1487 15.9978C14.1591 16.1438 14.1487 16.3433 14.1487 16.3433C14.1487 16.3433 14.022 16.3315 13.8808 16.3347C13.7083 16.3387 13.5648 16.3328 13.4657 16.317C13.3226 16.294 12.9363 15.8106 12.7385 15.4339C12.4363 14.8575 11.7025 14.8855 11.4017 15.3945C11.1304 15.8563 10.742 16.3117 10.6268 16.3262C10.2522 16.3733 9.67205 16.3787 8.55501 16.3595C8.44822 16.3576 8.44822 16.3576 8.34152 16.3557C7.91263 16.3481 7.92911 16.4205 7.93789 16.3433C7.96296 16.123 7.96011 16.1643 7.93789 15.944C7.90063 15.5747 7.78664 15.2735 7.54912 15.0735C7.42625 14.9691 7.27929 14.8328 6.98411 14.5524C6.64689 14.232 6.54128 14.1331 6.41112 14.0186L5.60982 13.1279C5.52186 13.0155 4.74979 11.694 4.39733 11.1825C4.26022 10.984 4.20893 10.9195 3.68272 10.271ZM13.1914 10.2748V13.7338C13.1914 14.2338 13.9414 14.2338 13.9414 13.7338V10.2748C13.9414 9.77481 13.1914 9.77481 13.1914 10.2748ZM11.1599 10.2742L11.1759 13.7472C11.1782 14.2472 11.9281 14.2438 11.9258 13.7438L11.9098 10.2708C11.9075 9.77079 11.1575 9.77424 11.1599 10.2742ZM9.95074 13.7278L9.92974 10.3018C9.92667 9.80182 9.17669 9.80642 9.17975 10.3064L9.20075 13.7324C9.20382 14.2324 9.9538 14.2278 9.95074 13.7278Z" fill="white"/>
</g>
<defs>
<filter id="filter0_d_1162_241" x="0.0646973" y="0.101562" width="19.0573" height="20.0176" filterUnits="userSpaceOnUse" color-interpolation-filters="sRGB">
<feFlood flood-opacity="0" result="BackgroundImageFix"/>
<feColorMatrix in="SourceAlpha" type="matrix" values="0 0 0 0 0 0 0 0 0 0 0 0 0 0 0 0 0 0 127 0" result="hardAlpha"/>
<feOffset dy="1"/>
<feGaussianBlur stdDeviation="1"/>
<feColorMatrix type="matrix" values="0 0 0 0 0 0 0 0 0 0 0 0 0 0 0 0 0 0 0.298656 0"/>
<feBlend mode="normal" in2="BackgroundImageFix" result="effect1_dropShadow_1162_241"/>
<feBlend mode="normal" in="SourceGraphic" in2="effect1_dropShadow_1162_241" result="shape"/>
</filter>
</defs>
</svg>
