<svg width="19" height="13" viewBox="0 0 19 13" fill="none" xmlns="http://www.w3.org/2000/svg">
<path d="M8.27412 7.28H5.25012V10.384H3.13812V7.28H0.114124V5.328H3.13812V2.224H5.25012V5.328H8.27412V7.28ZM12.3834 5.824C11.3167 5.26933 10.7834 4.41067 10.7834 3.248C10.7834 2.672 10.9274 2.14933 11.2154 1.68C11.514 1.2 11.9567 0.821333 12.5434 0.544C13.1407 0.256 13.866 0.112 14.7194 0.112C15.5727 0.112 16.2927 0.256 16.8794 0.544C17.4767 0.821333 17.9194 1.2 18.2074 1.68C18.506 2.14933 18.6554 2.672 18.6554 3.248C18.6554 3.83467 18.5114 4.352 18.2234 4.8C17.9354 5.23733 17.5514 5.57867 17.0714 5.824C17.658 6.08 18.1167 6.45333 18.4474 6.944C18.778 7.43467 18.9434 8.016 18.9434 8.688C18.9434 9.41333 18.7567 10.048 18.3834 10.592C18.0207 11.1253 17.5194 11.536 16.8794 11.824C16.2394 12.112 15.5194 12.256 14.7194 12.256C13.9194 12.256 13.1994 12.112 12.5594 11.824C11.93 11.536 11.4287 11.1253 11.0554 10.592C10.6927 10.048 10.5114 9.41333 10.5114 8.688C10.5114 8.016 10.6767 7.43467 11.0074 6.944C11.338 6.44267 11.7967 6.06933 12.3834 5.824ZM16.4794 3.568C16.4794 3.04533 16.3194 2.64 15.9994 2.352C15.69 2.064 15.2634 1.92 14.7194 1.92C14.186 1.92 13.7594 2.064 13.4394 2.352C13.13 2.64 12.9754 3.05067 12.9754 3.584C12.9754 4.064 13.1354 4.448 13.4554 4.736C13.786 5.024 14.2074 5.168 14.7194 5.168C15.2314 5.168 15.6527 5.024 15.9834 4.736C16.314 4.43733 16.4794 4.048 16.4794 3.568ZM14.7194 6.8C14.1114 6.8 13.6154 6.95467 13.2314 7.264C12.858 7.57333 12.6714 8.016 12.6714 8.592C12.6714 9.12533 12.8527 9.56267 13.2154 9.904C13.5887 10.2347 14.09 10.4 14.7194 10.4C15.3487 10.4 15.8447 10.2293 16.2074 9.888C16.57 9.54667 16.7514 9.11467 16.7514 8.592C16.7514 8.02667 16.5647 7.58933 16.1914 7.28C15.818 6.96 15.3274 6.8 14.7194 6.8Z" fill="#0A514C"/>
</svg>
