<svg width="18" height="18" viewBox="0 0 18 18" fill="none" xmlns="http://www.w3.org/2000/svg">
<g clip-path="url(#clip0_1266_657)">
<path d="M8.99996 0.666016C4.40478 0.666016 0.666626 4.40417 0.666626 8.99935C0.666626 13.5945 4.40478 17.3327 8.99996 17.3327C13.5951 17.3327 17.3333 13.5945 17.3333 8.99935C17.3333 4.40417 13.5951 0.666016 8.99996 0.666016Z" fill="#FFE175"/>
<path d="M13.2235 7.23249L8.7096 11.7463C8.57419 11.8817 8.39642 11.9499 8.21865 11.9499C8.04089 11.9499 7.86312 11.8817 7.7277 11.7463L5.4708 9.48939C5.19919 9.2179 5.19919 8.77897 5.4708 8.50749C5.74229 8.23587 6.18109 8.23587 6.4527 8.50749L8.21865 10.2734L12.2416 6.25059C12.5131 5.97897 12.9519 5.97897 13.2235 6.25059C13.495 6.52207 13.495 6.96087 13.2235 7.23249Z" fill="#000706"/>
</g>
<defs>
<clipPath id="clip0_1266_657">
<rect width="16.6667" height="16.6667" fill="white" transform="translate(0.666626 0.666016)"/>
</clipPath>
</defs>
</svg>
