<svg width="135" height="25" viewBox="0 0 135 25" fill="none" xmlns="http://www.w3.org/2000/svg">
<rect width="135" height="25" rx="3" fill="#FFE175"/>
<path d="M21.3133 11.166H10.6467V16.4993C10.6467 18.4993 11.3133 19.166 13.3133 19.166H18.6467C20.6467 19.166 21.3133 18.4993 21.3133 16.4993V11.166Z" stroke="#FE3A3B" stroke-width="1.5" stroke-miterlimit="10" stroke-linecap="round" stroke-linejoin="round"/>
<path d="M22.3334 9.16732V9.83398C22.3334 10.5673 21.98 11.1673 21 11.1673H11C9.98002 11.1673 9.66669 10.5673 9.66669 9.83398V9.16732C9.66669 8.43398 9.98002 7.83398 11 7.83398H21C21.98 7.83398 22.3334 8.43398 22.3334 9.16732Z" stroke="#FE3A3B" stroke-width="1.5" stroke-miterlimit="10" stroke-linecap="round" stroke-linejoin="round"/>
<path d="M15.76 7.83427H12.08C11.8533 7.5876 11.86 7.2076 12.1 6.9676L13.0467 6.02094C13.2933 5.77427 13.7 5.77427 13.9467 6.02094L15.76 7.83427Z" stroke="#FE3A3B" stroke-width="1.5" stroke-miterlimit="10" stroke-linecap="round" stroke-linejoin="round"/>
<path d="M19.9133 7.83427H16.2333L18.0467 6.02094C18.2933 5.77427 18.7 5.77427 18.9467 6.02094L19.8933 6.9676C20.1333 7.2076 20.14 7.5876 19.9133 7.83427Z" stroke="#FE3A3B" stroke-width="1.5" stroke-miterlimit="10" stroke-linecap="round" stroke-linejoin="round"/>
<path d="M13.96 11.166V14.5927C13.96 15.126 14.5467 15.4393 14.9934 15.1527L15.62 14.7393C15.8467 14.5927 16.1334 14.5927 16.3534 14.7393L16.9467 15.1393C17.3867 15.4327 17.98 15.1193 17.98 14.586V11.166H13.96Z" stroke="#FE3A3B" stroke-width="1.5" stroke-miterlimit="10" stroke-linecap="round" stroke-linejoin="round"/>
<path d="M40.024 8.624L37.684 17H35.704L34.132 11.036L32.488 17L30.52 17.012L28.264 8.624H30.064L31.54 15.128L33.244 8.624H35.116L36.724 15.092L38.212 8.624H40.024ZM47.301 13.532C47.301 13.772 47.285 13.988 47.253 14.18H42.393C42.433 14.66 42.601 15.036 42.897 15.308C43.193 15.58 43.557 15.716 43.989 15.716C44.613 15.716 45.057 15.448 45.321 14.912H47.133C46.941 15.552 46.573 16.08 46.029 16.496C45.485 16.904 44.817 17.108 44.025 17.108C43.385 17.108 42.809 16.968 42.297 16.688C41.793 16.4 41.397 15.996 41.109 15.476C40.829 14.956 40.689 14.356 40.689 13.676C40.689 12.988 40.829 12.384 41.109 11.864C41.389 11.344 41.781 10.944 42.285 10.664C42.789 10.384 43.369 10.244 44.025 10.244C44.657 10.244 45.221 10.38 45.717 10.652C46.221 10.924 46.609 11.312 46.881 11.816C47.161 12.312 47.301 12.884 47.301 13.532ZM45.561 13.052C45.553 12.62 45.397 12.276 45.093 12.02C44.789 11.756 44.417 11.624 43.977 11.624C43.561 11.624 43.209 11.752 42.921 12.008C42.641 12.256 42.469 12.604 42.405 13.052H45.561ZM50.2072 8.12V17H48.5272V8.12H50.2072ZM51.4351 13.676C51.4351 12.988 51.5751 12.388 51.8551 11.876C52.1351 11.356 52.5231 10.956 53.0191 10.676C53.5151 10.388 54.0831 10.244 54.7231 10.244C55.5471 10.244 56.2271 10.452 56.7631 10.868C57.3071 11.276 57.6711 11.852 57.8551 12.596H56.0431C55.9471 12.308 55.7831 12.084 55.5511 11.924C55.3271 11.756 55.0471 11.672 54.7111 11.672C54.2311 11.672 53.8511 11.848 53.5711 12.2C53.2911 12.544 53.1511 13.036 53.1511 13.676C53.1511 14.308 53.2911 14.8 53.5711 15.152C53.8511 15.496 54.2311 15.668 54.7111 15.668C55.3911 15.668 55.8351 15.364 56.0431 14.756H57.8551C57.6711 15.476 57.3071 16.048 56.7631 16.472C56.2191 16.896 55.5391 17.108 54.7231 17.108C54.0831 17.108 53.5151 16.968 53.0191 16.688C52.5231 16.4 52.1351 16 51.8551 15.488C51.5751 14.968 51.4351 14.364 51.4351 13.676ZM62.0378 17.108C61.3978 17.108 60.8218 16.968 60.3098 16.688C59.7978 16.4 59.3938 15.996 59.0978 15.476C58.8098 14.956 58.6658 14.356 58.6658 13.676C58.6658 12.996 58.8138 12.396 59.1098 11.876C59.4138 11.356 59.8258 10.956 60.3458 10.676C60.8658 10.388 61.4458 10.244 62.0858 10.244C62.7258 10.244 63.3058 10.388 63.8258 10.676C64.3458 10.956 64.7538 11.356 65.0498 11.876C65.3538 12.396 65.5058 12.996 65.5058 13.676C65.5058 14.356 65.3498 14.956 65.0378 15.476C64.7338 15.996 64.3178 16.4 63.7898 16.688C63.2698 16.968 62.6858 17.108 62.0378 17.108ZM62.0378 15.644C62.3418 15.644 62.6258 15.572 62.8898 15.428C63.1618 15.276 63.3778 15.052 63.5378 14.756C63.6978 14.46 63.7778 14.1 63.7778 13.676C63.7778 13.044 63.6098 12.56 63.2738 12.224C62.9458 11.88 62.5418 11.708 62.0618 11.708C61.5818 11.708 61.1778 11.88 60.8498 12.224C60.5298 12.56 60.3698 13.044 60.3698 13.676C60.3698 14.308 60.5258 14.796 60.8378 15.14C61.1578 15.476 61.5578 15.644 62.0378 15.644ZM74.9942 10.256C75.8102 10.256 76.4662 10.508 76.9622 11.012C77.4662 11.508 77.7182 12.204 77.7182 13.1V17H76.0382V13.328C76.0382 12.808 75.9062 12.412 75.6422 12.14C75.3782 11.86 75.0182 11.72 74.5622 11.72C74.1062 11.72 73.7422 11.86 73.4702 12.14C73.2062 12.412 73.0742 12.808 73.0742 13.328V17H71.3942V13.328C71.3942 12.808 71.2622 12.412 70.9982 12.14C70.7342 11.86 70.3742 11.72 69.9182 11.72C69.4542 11.72 69.0862 11.86 68.8142 12.14C68.5502 12.412 68.4182 12.808 68.4182 13.328V17H66.7382V10.352H68.4182V11.156C68.6342 10.876 68.9102 10.656 69.2462 10.496C69.5902 10.336 69.9662 10.256 70.3742 10.256C70.8942 10.256 71.3582 10.368 71.7662 10.592C72.1742 10.808 72.4902 11.12 72.7142 11.528C72.9302 11.144 73.2422 10.836 73.6502 10.604C74.0662 10.372 74.5142 10.256 74.9942 10.256ZM85.4924 13.532C85.4924 13.772 85.4764 13.988 85.4444 14.18H80.5844C80.6244 14.66 80.7924 15.036 81.0884 15.308C81.3844 15.58 81.7484 15.716 82.1804 15.716C82.8044 15.716 83.2484 15.448 83.5124 14.912H85.3244C85.1324 15.552 84.7644 16.08 84.2204 16.496C83.6764 16.904 83.0084 17.108 82.2164 17.108C81.5764 17.108 81.0004 16.968 80.4884 16.688C79.9844 16.4 79.5884 15.996 79.3004 15.476C79.0204 14.956 78.8804 14.356 78.8804 13.676C78.8804 12.988 79.0204 12.384 79.3004 11.864C79.5804 11.344 79.9724 10.944 80.4764 10.664C80.9804 10.384 81.5604 10.244 82.2164 10.244C82.8484 10.244 83.4124 10.38 83.9084 10.652C84.4124 10.924 84.8004 11.312 85.0724 11.816C85.3524 12.312 85.4924 12.884 85.4924 13.532ZM83.7524 13.052C83.7444 12.62 83.5884 12.276 83.2844 12.02C82.9804 11.756 82.6084 11.624 82.1684 11.624C81.7524 11.624 81.4004 11.752 81.1124 12.008C80.8324 12.256 80.6604 12.604 80.5964 13.052H83.7524ZM91.258 11.324C91.474 11.004 91.77 10.744 92.146 10.544C92.53 10.344 92.966 10.244 93.454 10.244C94.022 10.244 94.534 10.384 94.99 10.664C95.454 10.944 95.818 11.344 96.082 11.864C96.354 12.376 96.49 12.972 96.49 13.652C96.49 14.332 96.354 14.936 96.082 15.464C95.818 15.984 95.454 16.388 94.99 16.676C94.534 16.964 94.022 17.108 93.454 17.108C92.958 17.108 92.522 17.012 92.146 16.82C91.778 16.62 91.482 16.364 91.258 16.052V17H89.578V8.12H91.258V11.324ZM94.774 13.652C94.774 13.252 94.69 12.908 94.522 12.62C94.362 12.324 94.146 12.1 93.874 11.948C93.61 11.796 93.322 11.72 93.01 11.72C92.706 11.72 92.418 11.8 92.146 11.96C91.882 12.112 91.666 12.336 91.498 12.632C91.338 12.928 91.258 13.276 91.258 13.676C91.258 14.076 91.338 14.424 91.498 14.72C91.666 15.016 91.882 15.244 92.146 15.404C92.418 15.556 92.706 15.632 93.01 15.632C93.322 15.632 93.61 15.552 93.874 15.392C94.146 15.232 94.362 15.004 94.522 14.708C94.69 14.412 94.774 14.06 94.774 13.652ZM100.663 17.108C100.023 17.108 99.4468 16.968 98.9348 16.688C98.4228 16.4 98.0188 15.996 97.7228 15.476C97.4348 14.956 97.2908 14.356 97.2908 13.676C97.2908 12.996 97.4388 12.396 97.7348 11.876C98.0388 11.356 98.4508 10.956 98.9708 10.676C99.4908 10.388 100.071 10.244 100.711 10.244C101.351 10.244 101.931 10.388 102.451 10.676C102.971 10.956 103.379 11.356 103.675 11.876C103.979 12.396 104.131 12.996 104.131 13.676C104.131 14.356 103.975 14.956 103.663 15.476C103.359 15.996 102.943 16.4 102.415 16.688C101.895 16.968 101.311 17.108 100.663 17.108ZM100.663 15.644C100.967 15.644 101.251 15.572 101.515 15.428C101.787 15.276 102.003 15.052 102.163 14.756C102.323 14.46 102.403 14.1 102.403 13.676C102.403 13.044 102.235 12.56 101.899 12.224C101.571 11.88 101.167 11.708 100.687 11.708C100.207 11.708 99.8028 11.88 99.4748 12.224C99.1548 12.56 98.9948 13.044 98.9948 13.676C98.9948 14.308 99.1508 14.796 99.4628 15.14C99.7828 15.476 100.183 15.644 100.663 15.644ZM109.047 10.256C109.839 10.256 110.479 10.508 110.967 11.012C111.455 11.508 111.699 12.204 111.699 13.1V17H110.019V13.328C110.019 12.8 109.887 12.396 109.623 12.116C109.359 11.828 108.999 11.684 108.543 11.684C108.079 11.684 107.711 11.828 107.439 12.116C107.175 12.396 107.043 12.8 107.043 13.328V17H105.363V10.352H107.043V11.18C107.267 10.892 107.551 10.668 107.895 10.508C108.247 10.34 108.631 10.256 109.047 10.256ZM119.573 10.352V17H117.881V16.16C117.665 16.448 117.381 16.676 117.029 16.844C116.685 17.004 116.309 17.084 115.901 17.084C115.381 17.084 114.921 16.976 114.521 16.76C114.121 16.536 113.805 16.212 113.573 15.788C113.349 15.356 113.237 14.844 113.237 14.252V10.352H114.917V14.012C114.917 14.54 115.049 14.948 115.313 15.236C115.577 15.516 115.937 15.656 116.393 15.656C116.857 15.656 117.221 15.516 117.485 15.236C117.749 14.948 117.881 14.54 117.881 14.012V10.352H119.573ZM123.774 17.108C123.23 17.108 122.742 17.012 122.31 16.82C121.878 16.62 121.534 16.352 121.278 16.016C121.03 15.68 120.894 15.308 120.87 14.9H122.562C122.594 15.156 122.718 15.368 122.934 15.536C123.158 15.704 123.434 15.788 123.762 15.788C124.082 15.788 124.33 15.724 124.506 15.596C124.69 15.468 124.782 15.304 124.782 15.104C124.782 14.888 124.67 14.728 124.446 14.624C124.23 14.512 123.882 14.392 123.402 14.264C122.906 14.144 122.498 14.02 122.178 13.892C121.866 13.764 121.594 13.568 121.362 13.304C121.138 13.04 121.026 12.684 121.026 12.236C121.026 11.868 121.13 11.532 121.338 11.228C121.554 10.924 121.858 10.684 122.25 10.508C122.65 10.332 123.118 10.244 123.654 10.244C124.446 10.244 125.078 10.444 125.55 10.844C126.022 11.236 126.282 11.768 126.33 12.44H124.722C124.698 12.176 124.586 11.968 124.386 11.816C124.194 11.656 123.934 11.576 123.606 11.576C123.302 11.576 123.066 11.632 122.898 11.744C122.738 11.856 122.658 12.012 122.658 12.212C122.658 12.436 122.77 12.608 122.994 12.728C123.218 12.84 123.566 12.956 124.038 13.076C124.518 13.196 124.914 13.32 125.226 13.448C125.538 13.576 125.806 13.776 126.03 14.048C126.262 14.312 126.382 14.664 126.39 15.104C126.39 15.488 126.282 15.832 126.066 16.136C125.858 16.44 125.554 16.68 125.154 16.856C124.762 17.024 124.302 17.108 123.774 17.108Z" fill="#000706"/>
</svg>
